<svg viewBox="-110.000000 -110.000000 325.000000 325.000000">
<!--/1 -->
     <circle cx="50.000000" cy="50.000000" r="40.000000" stroke="black" stroke-width="2.0" fill="blue" /> <text x="50.000000" y="50.000000" fill="red" > 1 </text> -->
<!--/2 -->
     <rect width="5.000000" height="5.000000" x="160.000000" y="50.000000" stroke="black" stroke-width="1.5" fill="yellow" /> <text x="160.000000" y="50.000000" fill="red" > 2 </text> -->
<!--/3 -->
     <rect width="5.000000" height="5.000000" x="127.781746" y="127.781746" stroke="black" stroke-width="1.5" fill="yellow" /> <text x="127.781746" y="127.781746" fill="red" > 3 </text> -->
<!--/4 -->
     <rect width="5.000000" height="5.000000" x="50.000000" y="160.000000" stroke="black" stroke-width="1.5" fill="yellow" /> <text x="50.000000" y="160.000000" fill="red" > 4 </text> -->
<!--/5 -->
     <rect width="5.000000" height="5.000000" x="-27.781746" y="127.781746" stroke="black" stroke-width="1.5" fill="yellow" /> <text x="-27.781746" y="127.781746" fill="red" > 5 </text> -->
<!--/6 -->
     <rect width="5.000000" height="5.000000" x="-60.000000" y="50.000000" stroke="black" stroke-width="1.5" fill="yellow" /> <text x="-60.000000" y="50.000000" fill="red" > 6 </text> -->
<!--/7 -->
     <rect width="5.000000" height="5.000000" x="-27.781746" y="-27.781746" stroke="black" stroke-width="1.5" fill="yellow" /> <text x="-27.781746" y="-27.781746" fill="red" > 7 </text> -->
<!--/8 -->
     <rect width="5.000000" height="5.000000" x="50.000000" y="-60.000000" stroke="black" stroke-width="1.5" fill="yellow" /> <text x="50.000000" y="-60.000000" fill="red" > 8 </text> -->
<!--/9 -->
     <rect width="5.000000" height="5.000000" x="127.781746" y="-27.781746" stroke="black" stroke-width="1.5" fill="yellow" /> <text x="127.781746" y="-27.781746" fill="red" > 9 </text> -->
     <rect width="175.000000" height="100.000000" x="0.000000" y="0.000000" fill="#044B94" fill-opacity="0.0" stroke-width="1.5" stroke="rgb(0,0,0)" stroke-dasharray="5,5" /> 
     <rect width="142.781738" height="142.781738" x="0.000000" y="0.000000" fill="#044B94" fill-opacity="0.0" stroke-width="1.5" stroke="rgb(0,0,0)" stroke-dasharray="5,5" /> 
     <rect width="100.000000" height="175.000000" x="0.000000" y="0.000000" fill="#044B94" fill-opacity="0.0" stroke-width="1.5" stroke="rgb(0,0,0)" stroke-dasharray="5,5" /> 
     <rect width="137.781738" height="142.781738" x="-37.781746" y="0.000000" fill="#044B94" fill-opacity="0.0" stroke-width="1.5" stroke="rgb(0,0,0)" stroke-dasharray="5,5" /> 
     <rect width="170.000000" height="100.000000" x="-70.000000" y="0.000000" fill="#044B94" fill-opacity="0.0" stroke-width="1.5" stroke="rgb(0,0,0)" stroke-dasharray="5,5" /> 
     <rect width="137.781738" height="137.781738" x="-37.781746" y="-37.781746" fill="#044B94" fill-opacity="0.0" stroke-width="1.5" stroke="rgb(0,0,0)" stroke-dasharray="5,5" /> 
     <rect width="100.000000" height="170.000000" x="0.000000" y="-70.000000" fill="#044B94" fill-opacity="0.0" stroke-width="1.5" stroke="rgb(0,0,0)" stroke-dasharray="5,5" /> 
     <rect width="142.781738" height="137.781738" x="0.000000" y="-37.781746" fill="#044B94" fill-opacity="0.0" stroke-width="1.5" stroke="rgb(0,0,0)" stroke-dasharray="5,5" /> 
</svg>