<svg viewBox="-50.000000 -50.000000 177.000000 172.000000">
<!--/1 -->
     <circle cx="30.000000" cy="30.000000" r="30.000000" stroke="black" stroke-width="2.0" fill="blue" /> <text x="30.000000" y="30.000000" fill="red" > 1 </text> -->
<!--/2 -->
     <rect width="20.000000" height="15.000000" x="57.000000" y="30.000000" stroke="black" stroke-width="1.5" fill="yellow" /> <text x="57.000000" y="30.000000" fill="red" > 2 </text> -->
<!--/3 -->
     <rect width="20.000000" height="15.000000" x="56.079997" y="36.988114" stroke="black" stroke-width="1.5" fill="yellow" /> <text x="56.079997" y="36.988114" fill="red" > 3 </text> -->
<!--/4 -->
     <rect width="20.000000" height="15.000000" x="53.382686" y="43.500000" stroke="black" stroke-width="1.5" fill="yellow" /> <text x="53.382686" y="43.500000" fill="red" > 4 </text> -->
<!--/5 -->
     <rect width="20.000000" height="15.000000" x="49.091883" y="49.091883" stroke="black" stroke-width="1.5" fill="yellow" /> <text x="49.091883" y="49.091883" fill="red" > 5 </text> -->
<!--/6 -->
     <rect width="20.000000" height="15.000000" x="43.500000" y="53.382686" stroke="black" stroke-width="1.5" fill="yellow" /> <text x="43.500000" y="53.382686" fill="red" > 6 </text> -->
<!--/7 -->
     <rect width="20.000000" height="15.000000" x="36.988114" y="56.079997" stroke="black" stroke-width="1.5" fill="yellow" /> <text x="36.988114" y="56.079997" fill="red" > 7 </text> -->
<!--/8 -->
     <rect width="20.000000" height="15.000000" x="30.000000" y="57.000000" stroke="black" stroke-width="1.5" fill="yellow" /> <text x="30.000000" y="57.000000" fill="red" > 8 </text> -->
<!--/9 -->
     <rect width="20.000000" height="15.000000" x="23.011886" y="56.079997" stroke="black" stroke-width="1.5" fill="yellow" /> <text x="23.011886" y="56.079997" fill="red" > 9 </text> -->
<!--/10 -->
     <rect width="20.000000" height="15.000000" x="16.500000" y="53.382686" stroke="black" stroke-width="1.5" fill="yellow" /> <text x="16.500000" y="53.382686" fill="red" > 10 </text> -->
<!--/11 -->
     <rect width="20.000000" height="15.000000" x="10.908117" y="49.091883" stroke="black" stroke-width="1.5" fill="yellow" /> <text x="10.908117" y="49.091883" fill="red" > 11 </text> -->
<!--/12 -->
     <rect width="20.000000" height="15.000000" x="6.617314" y="43.500000" stroke="black" stroke-width="1.5" fill="yellow" /> <text x="6.617314" y="43.500000" fill="red" > 12 </text> -->
<!--/13 -->
     <rect width="20.000000" height="15.000000" x="3.920003" y="36.988114" stroke="black" stroke-width="1.5" fill="yellow" /> <text x="3.920003" y="36.988114" fill="red" > 13 </text> -->
<!--/14 -->
     <rect width="20.000000" height="15.000000" x="3.000000" y="30.000000" stroke="black" stroke-width="1.5" fill="yellow" /> <text x="3.000000" y="30.000000" fill="red" > 14 </text> -->
<!--/15 -->
     <rect width="20.000000" height="15.000000" x="3.920003" y="23.011886" stroke="black" stroke-width="1.5" fill="yellow" /> <text x="3.920003" y="23.011886" fill="red" > 15 </text> -->
<!--/16 -->
     <rect width="20.000000" height="15.000000" x="6.617314" y="16.500000" stroke="black" stroke-width="1.5" fill="yellow" /> <text x="6.617314" y="16.500000" fill="red" > 16 </text> -->
<!--/17 -->
     <rect width="20.000000" height="15.000000" x="10.908117" y="10.908117" stroke="black" stroke-width="1.5" fill="yellow" /> <text x="10.908117" y="10.908117" fill="red" > 17 </text> -->
<!--/18 -->
     <rect width="20.000000" height="15.000000" x="16.500000" y="6.617314" stroke="black" stroke-width="1.5" fill="yellow" /> <text x="16.500000" y="6.617314" fill="red" > 18 </text> -->
<!--/19 -->
     <rect width="20.000000" height="15.000000" x="23.011886" y="3.920003" stroke="black" stroke-width="1.5" fill="yellow" /> <text x="23.011886" y="3.920003" fill="red" > 19 </text> -->
<!--/20 -->
     <rect width="20.000000" height="15.000000" x="30.000000" y="3.000000" stroke="black" stroke-width="1.5" fill="yellow" /> <text x="30.000000" y="3.000000" fill="red" > 20 </text> -->
<!--/21 -->
     <rect width="20.000000" height="15.000000" x="36.988114" y="3.920003" stroke="black" stroke-width="1.5" fill="yellow" /> <text x="36.988114" y="3.920003" fill="red" > 21 </text> -->
<!--/22 -->
     <rect width="20.000000" height="15.000000" x="43.500000" y="6.617314" stroke="black" stroke-width="1.5" fill="yellow" /> <text x="43.500000" y="6.617314" fill="red" > 22 </text> -->
<!--/23 -->
     <rect width="20.000000" height="15.000000" x="49.091883" y="10.908117" stroke="black" stroke-width="1.5" fill="yellow" /> <text x="49.091883" y="10.908117" fill="red" > 23 </text> -->
<!--/24 -->
     <rect width="20.000000" height="15.000000" x="53.382686" y="16.500000" stroke="black" stroke-width="1.5" fill="yellow" /> <text x="53.382686" y="16.500000" fill="red" > 24 </text> -->
<!--/25 -->
     <rect width="20.000000" height="15.000000" x="56.079997" y="23.011886" stroke="black" stroke-width="1.5" fill="yellow" /> <text x="56.079997" y="23.011886" fill="red" > 25 </text> -->
     <rect width="97.000000" height="80.000000" x="-10.000000" y="-10.000000" fill="#044B94" fill-opacity="0.0" stroke-width="1.5" stroke="rgb(0,0,0)" /> 
     <rect width="96.080002" height="80.000000" x="-10.000000" y="-10.000000" fill="#044B94" fill-opacity="0.0" stroke-width="1.5" stroke="rgb(0,0,0)" /> 
     <rect width="93.382690" height="80.000000" x="-10.000000" y="-10.000000" fill="#044B94" fill-opacity="0.0" stroke-width="1.5" stroke="rgb(0,0,0)" /> 
     <rect width="89.091888" height="84.091888" x="-10.000000" y="-10.000000" fill="#044B94" fill-opacity="0.0" stroke-width="1.5" stroke="rgb(0,0,0)" /> 
     <rect width="83.500000" height="88.382690" x="-10.000000" y="-10.000000" fill="#044B94" fill-opacity="0.0" stroke-width="1.5" stroke="rgb(0,0,0)" /> 
     <rect width="80.000000" height="91.080002" x="-10.000000" y="-10.000000" fill="#044B94" fill-opacity="0.0" stroke-width="1.5" stroke="rgb(0,0,0)" /> 
     <rect width="80.000000" height="92.000000" x="-10.000000" y="-10.000000" fill="#044B94" fill-opacity="0.0" stroke-width="1.5" stroke="rgb(0,0,0)" /> 
     <rect width="80.000000" height="91.080002" x="-10.000000" y="-10.000000" fill="#044B94" fill-opacity="0.0" stroke-width="1.5" stroke="rgb(0,0,0)" /> 
     <rect width="80.000000" height="88.382690" x="-10.000000" y="-10.000000" fill="#044B94" fill-opacity="0.0" stroke-width="1.5" stroke="rgb(0,0,0)" /> 
     <rect width="80.000000" height="84.091888" x="-10.000000" y="-10.000000" fill="#044B94" fill-opacity="0.0" stroke-width="1.5" stroke="rgb(0,0,0)" /> 
     <rect width="80.000000" height="80.000000" x="-10.000000" y="-10.000000" fill="#044B94" fill-opacity="0.0" stroke-width="1.5" stroke="rgb(0,0,0)" /> 
     <rect width="80.000000" height="80.000000" x="-10.000000" y="-10.000000" fill="#044B94" fill-opacity="0.0" stroke-width="1.5" stroke="rgb(0,0,0)" /> 
     <rect width="80.000000" height="80.000000" x="-10.000000" y="-10.000000" fill="#044B94" fill-opacity="0.0" stroke-width="1.5" stroke="rgb(0,0,0)" /> 
     <rect width="80.000000" height="80.000000" x="-10.000000" y="-10.000000" fill="#044B94" fill-opacity="0.0" stroke-width="1.5" stroke="rgb(0,0,0)" /> 
     <rect width="80.000000" height="80.000000" x="-10.000000" y="-10.000000" fill="#044B94" fill-opacity="0.0" stroke-width="1.5" stroke="rgb(0,0,0)" /> 
     <rect width="80.000000" height="80.000000" x="-10.000000" y="-10.000000" fill="#044B94" fill-opacity="0.0" stroke-width="1.5" stroke="rgb(0,0,0)" /> 
     <rect width="80.000000" height="80.000000" x="-10.000000" y="-10.000000" fill="#044B94" fill-opacity="0.0" stroke-width="1.5" stroke="rgb(0,0,0)" /> 
     <rect width="80.000000" height="80.000000" x="-10.000000" y="-10.000000" fill="#044B94" fill-opacity="0.0" stroke-width="1.5" stroke="rgb(0,0,0)" /> 
     <rect width="80.000000" height="80.000000" x="-10.000000" y="-10.000000" fill="#044B94" fill-opacity="0.0" stroke-width="1.5" stroke="rgb(0,0,0)" /> 
     <rect width="80.000000" height="80.000000" x="-10.000000" y="-10.000000" fill="#044B94" fill-opacity="0.0" stroke-width="1.5" stroke="rgb(0,0,0)" /> 
     <rect width="83.500000" height="80.000000" x="-10.000000" y="-10.000000" fill="#044B94" fill-opacity="0.0" stroke-width="1.5" stroke="rgb(0,0,0)" /> 
     <rect width="89.091888" height="80.000000" x="-10.000000" y="-10.000000" fill="#044B94" fill-opacity="0.0" stroke-width="1.5" stroke="rgb(0,0,0)" /> 
     <rect width="93.382690" height="80.000000" x="-10.000000" y="-10.000000" fill="#044B94" fill-opacity="0.0" stroke-width="1.5" stroke="rgb(0,0,0)" /> 
     <rect width="96.080002" height="80.000000" x="-10.000000" y="-10.000000" fill="#044B94" fill-opacity="0.0" stroke-width="1.5" stroke="rgb(0,0,0)" /> 
</svg>