<svg viewBox="-77.500000 -77.500000 165.000000 170.000000">
<!--/1 -->
     <circle cx="0.000000" cy="0.000000" r="10.000000" stroke="black" stroke-width="2.0" fill="blue" /> <text x="0.000000" y="0.000000" fill="red" > 1 </text> -->
<!--/2 -->
     <rect width="10.000000" height="15.000000" x="27.500000" y="0.000000" stroke="black" stroke-width="1.5" fill="yellow" /> <text x="27.500000" y="0.000000" fill="red" > 2 </text> -->
<!--/3 -->
     <rect width="10.000000" height="15.000000" x="26.562960" y="7.117524" stroke="black" stroke-width="1.5" fill="yellow" /> <text x="26.562960" y="7.117524" fill="red" > 3 </text> -->
<!--/4 -->
     <rect width="10.000000" height="15.000000" x="23.815699" y="13.750000" stroke="black" stroke-width="1.5" fill="yellow" /> <text x="23.815699" y="13.750000" fill="red" > 4 </text> -->
<!--/5 -->
     <rect width="10.000000" height="15.000000" x="19.445436" y="19.445436" stroke="black" stroke-width="1.5" fill="yellow" /> <text x="19.445436" y="19.445436" fill="red" > 5 </text> -->
<!--/6 -->
     <rect width="10.000000" height="15.000000" x="13.750000" y="23.815699" stroke="black" stroke-width="1.5" fill="yellow" /> <text x="13.750000" y="23.815699" fill="red" > 6 </text> -->
<!--/7 -->
     <rect width="10.000000" height="15.000000" x="7.117524" y="26.562960" stroke="black" stroke-width="1.5" fill="yellow" /> <text x="7.117524" y="26.562960" fill="red" > 7 </text> -->
<!--/8 -->
     <rect width="10.000000" height="15.000000" x="0.000000" y="27.500000" stroke="black" stroke-width="1.5" fill="yellow" /> <text x="0.000000" y="27.500000" fill="red" > 8 </text> -->
<!--/9 -->
     <rect width="10.000000" height="15.000000" x="-7.117524" y="26.562960" stroke="black" stroke-width="1.5" fill="yellow" /> <text x="-7.117524" y="26.562960" fill="red" > 9 </text> -->
<!--/10 -->
     <rect width="10.000000" height="15.000000" x="-13.750000" y="23.815699" stroke="black" stroke-width="1.5" fill="yellow" /> <text x="-13.750000" y="23.815699" fill="red" > 10 </text> -->
<!--/11 -->
     <rect width="10.000000" height="15.000000" x="-19.445436" y="19.445436" stroke="black" stroke-width="1.5" fill="yellow" /> <text x="-19.445436" y="19.445436" fill="red" > 11 </text> -->
<!--/12 -->
     <rect width="10.000000" height="15.000000" x="-23.815699" y="13.750000" stroke="black" stroke-width="1.5" fill="yellow" /> <text x="-23.815699" y="13.750000" fill="red" > 12 </text> -->
<!--/13 -->
     <rect width="10.000000" height="15.000000" x="-26.562960" y="7.117524" stroke="black" stroke-width="1.5" fill="yellow" /> <text x="-26.562960" y="7.117524" fill="red" > 13 </text> -->
<!--/14 -->
     <rect width="10.000000" height="15.000000" x="-27.500000" y="0.000000" stroke="black" stroke-width="1.5" fill="yellow" /> <text x="-27.500000" y="0.000000" fill="red" > 14 </text> -->
<!--/15 -->
     <rect width="10.000000" height="15.000000" x="-26.562960" y="-7.117524" stroke="black" stroke-width="1.5" fill="yellow" /> <text x="-26.562960" y="-7.117524" fill="red" > 15 </text> -->
<!--/16 -->
     <rect width="10.000000" height="15.000000" x="-23.815699" y="-13.750000" stroke="black" stroke-width="1.5" fill="yellow" /> <text x="-23.815699" y="-13.750000" fill="red" > 16 </text> -->
<!--/17 -->
     <rect width="10.000000" height="15.000000" x="-19.445436" y="-19.445436" stroke="black" stroke-width="1.5" fill="yellow" /> <text x="-19.445436" y="-19.445436" fill="red" > 17 </text> -->
<!--/18 -->
     <rect width="10.000000" height="15.000000" x="-13.750000" y="-23.815699" stroke="black" stroke-width="1.5" fill="yellow" /> <text x="-13.750000" y="-23.815699" fill="red" > 18 </text> -->
<!--/19 -->
     <rect width="10.000000" height="15.000000" x="-7.117524" y="-26.562960" stroke="black" stroke-width="1.5" fill="yellow" /> <text x="-7.117524" y="-26.562960" fill="red" > 19 </text> -->
<!--/20 -->
     <rect width="10.000000" height="15.000000" x="-0.000000" y="-27.500000" stroke="black" stroke-width="1.5" fill="yellow" /> <text x="-0.000000" y="-27.500000" fill="red" > 20 </text> -->
<!--/21 -->
     <rect width="10.000000" height="15.000000" x="7.117524" y="-26.562960" stroke="black" stroke-width="1.5" fill="yellow" /> <text x="7.117524" y="-26.562960" fill="red" > 21 </text> -->
<!--/22 -->
     <rect width="10.000000" height="15.000000" x="13.750000" y="-23.815699" stroke="black" stroke-width="1.5" fill="yellow" /> <text x="13.750000" y="-23.815699" fill="red" > 22 </text> -->
<!--/23 -->
     <rect width="10.000000" height="15.000000" x="19.445436" y="-19.445436" stroke="black" stroke-width="1.5" fill="yellow" /> <text x="19.445436" y="-19.445436" fill="red" > 23 </text> -->
<!--/24 -->
     <rect width="10.000000" height="15.000000" x="23.815699" y="-13.750000" stroke="black" stroke-width="1.5" fill="yellow" /> <text x="23.815699" y="-13.750000" fill="red" > 24 </text> -->
<!--/25 -->
     <rect width="10.000000" height="15.000000" x="26.562960" y="-7.117524" stroke="black" stroke-width="1.5" fill="yellow" /> <text x="26.562960" y="-7.117524" fill="red" > 25 </text> -->
</svg>