<svg viewBox="-47.299999 -21.700001 1342.200073 999.900024">
<!--/0 -->
     <circle cx="318.500000" cy="789.000000" r="30.000000" stroke="black" stroke-width="2.0" fill="yellow" /> <text x="318.500000" y="789.000000" fill="red" > 0 </text> -->
<!--/1 -->
     <circle cx="344.000000" cy="789.000000" r="30.000000" stroke="black" stroke-width="2.0" fill="blue" /> <text x="344.000000" y="789.000000" fill="red" > 1 </text> -->
<!--/2 -->
     <rect width="30.000000" height="22.500000" x="275.034524" y="654.939692" stroke="black" stroke-width="1.5" fill="yellow" /> <text x="275.034524" y="654.939692" fill="red" > 2 </text> -->
<!--/3 -->
     <circle cx="277.700000" cy="680.300000" r="30.000000" stroke="black" stroke-width="2.0" fill="blue" /> <text x="277.700000" y="680.300000" fill="red" > 3 </text> -->
<!--/4 -->
     <rect width="30.000000" height="30.000000" x="381.400000" y="740.300000" stroke="black" stroke-width="1.5" fill="yellow" /> <text x="381.400000" y="740.300000" fill="red" > 4 </text> -->
<!--/5 -->
     <rect width="30.000000" height="30.000000" x="406.900000" y="765.800000" stroke="black" stroke-width="1.5" fill="blue" /> <text x="406.900000" y="765.800000" fill="red" > 5 </text> -->
<!--/6 -->
     <circle cx="265.200000" cy="632.800000" r="30.000000" stroke="black" stroke-width="2.0" fill="yellow" /> <text x="265.200000" y="632.800000" fill="red" > 6 </text> -->
<!--/7 -->
     <circle cx="290.700000" cy="632.800000" r="30.000000" stroke="black" stroke-width="2.0" fill="blue" /> <text x="290.700000" y="632.800000" fill="red" > 7 </text> -->
<!--/8 -->
     <rect width="30.000000" height="22.500000" x="908.016352" y="61.750000" stroke="black" stroke-width="1.5" fill="yellow" /> <text x="908.016352" y="61.750000" fill="red" > 8 </text> -->
<!--/9 -->
     <circle cx="930.100000" cy="74.500000" r="30.000000" stroke="black" stroke-width="2.0" fill="blue" /> <text x="930.100000" y="74.500000" fill="red" > 9 </text> -->
<!--/10 -->
     <rect width="30.000000" height="30.000000" x="119.700000" y="872.700000" stroke="black" stroke-width="1.5" fill="yellow" /> <text x="119.700000" y="872.700000" fill="red" > 10 </text> -->
<!--/11 -->
     <rect width="30.000000" height="30.000000" x="145.200000" y="898.200000" stroke="black" stroke-width="1.5" fill="blue" /> <text x="145.200000" y="898.200000" fill="red" > 11 </text> -->
<!--/12 -->
     <circle cx="268.600000" cy="827.500000" r="30.000000" stroke="black" stroke-width="2.0" fill="yellow" /> <text x="268.600000" y="827.500000" fill="red" > 12 </text> -->
<!--/13 -->
     <circle cx="294.100000" cy="827.500000" r="30.000000" stroke="black" stroke-width="2.0" fill="blue" /> <text x="294.100000" y="827.500000" fill="red" > 13 </text> -->
<!--/14 -->
     <rect width="30.000000" height="22.500000" x="962.459419" y="255.359542" stroke="black" stroke-width="1.5" fill="yellow" /> <text x="962.459419" y="255.359542" fill="red" > 14 </text> -->
<!--/15 -->
     <circle cx="948.200000" cy="276.500000" r="30.000000" stroke="black" stroke-width="2.0" fill="blue" /> <text x="948.200000" y="276.500000" fill="red" > 15 </text> -->
<!--/16 -->
     <rect width="30.000000" height="30.000000" x="815.000000" y="276.000000" stroke="black" stroke-width="1.5" fill="yellow" /> <text x="815.000000" y="276.000000" fill="red" > 16 </text> -->
<!--/17 -->
     <rect width="30.000000" height="30.000000" x="840.500000" y="301.500000" stroke="black" stroke-width="1.5" fill="blue" /> <text x="840.500000" y="301.500000" fill="red" > 17 </text> -->
<!--/18 -->
     <circle cx="1012.900000" cy="683.300000" r="30.000000" stroke="black" stroke-width="2.0" fill="yellow" /> <text x="1012.900000" y="683.300000" fill="red" > 18 </text> -->
<!--/19 -->
     <circle cx="1038.400000" cy="683.300000" r="30.000000" stroke="black" stroke-width="2.0" fill="blue" /> <text x="1038.400000" y="683.300000" fill="red" > 19 </text> -->
<!--/19 -->
     <circle cx="121.300000" cy="373.500000" r="20.000000" stroke="black" stroke-width="2.0" fill="yellow" /> <text x="121.300000" y="373.500000" fill="red" > 19 </text> -->
<!--/20 -->
     <circle cx="158.300000" cy="373.500000" r="20.000000" stroke="black" stroke-width="2.0" fill="blue" /> <text x="158.300000" y="373.500000" fill="red" > 20 </text> -->
<!--/21 -->
     <rect width="20.000000" height="15.000000" x="3.643591" y="379.684810" stroke="black" stroke-width="1.5" fill="yellow" /> <text x="3.643591" y="379.684810" fill="red" > 21 </text> -->
<!--/22 -->
     <circle cx="22.700000" cy="411.400000" r="20.000000" stroke="black" stroke-width="2.0" fill="blue" /> <text x="22.700000" y="411.400000" fill="red" > 22 </text> -->
<!--/23 -->
     <rect width="20.000000" height="20.000000" x="227.700000" y="556.100000" stroke="black" stroke-width="1.5" fill="yellow" /> <text x="227.700000" y="556.100000" fill="red" > 23 </text> -->
<!--/24 -->
     <rect width="20.000000" height="20.000000" x="264.700000" y="593.100000" stroke="black" stroke-width="1.5" fill="blue" /> <text x="264.700000" y="593.100000" fill="red" > 24 </text> -->
<!--/25 -->
     <circle cx="678.000000" cy="207.900000" r="20.000000" stroke="black" stroke-width="2.0" fill="yellow" /> <text x="678.000000" y="207.900000" fill="red" > 25 </text> -->
<!--/26 -->
     <circle cx="715.000000" cy="207.900000" r="20.000000" stroke="black" stroke-width="2.0" fill="blue" /> <text x="715.000000" y="207.900000" fill="red" > 26 </text> -->
<!--/27 -->
     <rect width="20.000000" height="15.000000" x="351.500000" y="126.242940" stroke="black" stroke-width="1.5" fill="yellow" /> <text x="351.500000" y="126.242940" fill="red" > 27 </text> -->
<!--/28 -->
     <circle cx="333.000000" cy="94.200000" r="20.000000" stroke="black" stroke-width="2.0" fill="blue" /> <text x="333.000000" y="94.200000" fill="red" > 28 </text> -->
<!--/29 -->
     <rect width="20.000000" height="20.000000" x="633.500000" y="172.000000" stroke="black" stroke-width="1.5" fill="yellow" /> <text x="633.500000" y="172.000000" fill="red" > 29 </text> -->
<!--/30 -->
     <rect width="20.000000" height="20.000000" x="670.500000" y="209.000000" stroke="black" stroke-width="1.5" fill="blue" /> <text x="670.500000" y="209.000000" fill="red" > 30 </text> -->
<!--/31 -->
     <circle cx="1184.400000" cy="161.100000" r="20.000000" stroke="black" stroke-width="2.0" fill="yellow" /> <text x="1184.400000" y="161.100000" fill="red" > 31 </text> -->
<!--/32 -->
     <circle cx="1221.400000" cy="161.100000" r="20.000000" stroke="black" stroke-width="2.0" fill="blue" /> <text x="1221.400000" y="161.100000" fill="red" > 32 </text> -->
<!--/33 -->
     <rect width="20.000000" height="15.000000" x="469.223189" y="610.348308" stroke="black" stroke-width="1.5" fill="yellow" /> <text x="469.223189" y="610.348308" fill="red" > 33 </text> -->
<!--/34 -->
     <circle cx="460.900000" cy="646.400000" r="20.000000" stroke="black" stroke-width="2.0" fill="blue" /> <text x="460.900000" y="646.400000" fill="red" > 34 </text> -->
<!--/35 -->
     <rect width="20.000000" height="20.000000" x="993.200000" y="58.800000" stroke="black" stroke-width="1.5" fill="yellow" /> <text x="993.200000" y="58.800000" fill="red" > 35 </text> -->
<!--/36 -->
     <rect width="20.000000" height="20.000000" x="1030.200000" y="95.800000" stroke="black" stroke-width="1.5" fill="blue" /> <text x="1030.200000" y="95.800000" fill="red" > 36 </text> -->
<!--/37 -->
     <circle cx="1175.200000" cy="827.700000" r="20.000000" stroke="black" stroke-width="2.0" fill="yellow" /> <text x="1175.200000" y="827.700000" fill="red" > 37 </text> -->
<!--/38 -->
     <circle cx="1212.200000" cy="827.700000" r="20.000000" stroke="black" stroke-width="2.0" fill="blue" /> <text x="1212.200000" y="827.700000" fill="red" > 38 </text> -->
<!--/39 -->
     <rect width="20.000000" height="15.000000" x="459.202690" y="503.732447" stroke="black" stroke-width="1.5" fill="yellow" /> <text x="459.202690" y="503.732447" fill="red" > 39 </text> -->
<!--/40 -->
     <circle cx="496.000000" cy="507.600000" r="20.000000" stroke="black" stroke-width="2.0" fill="blue" /> <text x="496.000000" y="507.600000" fill="red" > 40 </text> -->
<!--/41 -->
     <rect width="20.000000" height="20.000000" x="357.900000" y="756.000000" stroke="black" stroke-width="1.5" fill="yellow" /> <text x="357.900000" y="756.000000" fill="red" > 41 </text> -->
<!--/42 -->
     <rect width="20.000000" height="20.000000" x="394.900000" y="793.000000" stroke="black" stroke-width="1.5" fill="blue" /> <text x="394.900000" y="793.000000" fill="red" > 42 </text> -->
<!--/43 -->
     <circle cx="209.200000" cy="257.900000" r="20.000000" stroke="black" stroke-width="2.0" fill="yellow" /> <text x="209.200000" y="257.900000" fill="red" > 43 </text> -->
<!--/44 -->
     <circle cx="246.200000" cy="257.900000" r="20.000000" stroke="black" stroke-width="2.0" fill="blue" /> <text x="246.200000" y="257.900000" fill="red" > 44 </text> -->
<!--/45 -->
     <rect width="20.000000" height="15.000000" x="595.275017" y="530.837887" stroke="black" stroke-width="1.5" fill="yellow" /> <text x="595.275017" y="530.837887" fill="red" > 45 </text> -->
<!--/46 -->
     <circle cx="601.700000" cy="494.400000" r="20.000000" stroke="black" stroke-width="2.0" fill="blue" /> <text x="601.700000" y="494.400000" fill="red" > 46 </text> -->
<!--/47 -->
     <rect width="20.000000" height="20.000000" x="1087.100000" y="485.500000" stroke="black" stroke-width="1.5" fill="yellow" /> <text x="1087.100000" y="485.500000" fill="red" > 47 </text> -->
<!--/48 -->
     <rect width="20.000000" height="20.000000" x="1124.100000" y="522.500000" stroke="black" stroke-width="1.5" fill="blue" /> <text x="1124.100000" y="522.500000" fill="red" > 48 </text> -->
<!--/49 -->
     <circle cx="864.400000" cy="660.900000" r="20.000000" stroke="black" stroke-width="2.0" fill="yellow" /> <text x="864.400000" y="660.900000" fill="red" > 49 </text> -->
<!--/50 -->
     <circle cx="901.400000" cy="660.900000" r="20.000000" stroke="black" stroke-width="2.0" fill="blue" /> <text x="901.400000" y="660.900000" fill="red" > 50 </text> -->
<!--/51 -->
     <rect width="20.000000" height="15.000000" x="550.260081" y="136.350595" stroke="black" stroke-width="1.5" fill="yellow" /> <text x="550.260081" y="136.350595" fill="red" > 51 </text> -->
<!--/52 -->
     <circle cx="586.900000" cy="141.500000" r="20.000000" stroke="black" stroke-width="2.0" fill="blue" /> <text x="586.900000" y="141.500000" fill="red" > 52 </text> -->
<!--/53 -->
     <rect width="20.000000" height="20.000000" x="779.400000" y="309.500000" stroke="black" stroke-width="1.5" fill="yellow" /> <text x="779.400000" y="309.500000" fill="red" > 53 </text> -->
<!--/54 -->
     <rect width="20.000000" height="20.000000" x="816.400000" y="346.500000" stroke="black" stroke-width="1.5" fill="blue" /> <text x="816.400000" y="346.500000" fill="red" > 54 </text> -->
<!--/55 -->
     <circle cx="951.200000" cy="530.100000" r="20.000000" stroke="black" stroke-width="2.0" fill="yellow" /> <text x="951.200000" y="530.100000" fill="red" > 55 </text> -->
<!--/56 -->
     <circle cx="988.200000" cy="530.100000" r="20.000000" stroke="black" stroke-width="2.0" fill="blue" /> <text x="988.200000" y="530.100000" fill="red" > 56 </text> -->
<!--/57 -->
     <rect width="20.000000" height="15.000000" x="247.405635" y="382.954261" stroke="black" stroke-width="1.5" fill="yellow" /> <text x="247.405635" y="382.954261" fill="red" > 57 </text> -->
<!--/58 -->
     <circle cx="284.400000" cy="383.600000" r="20.000000" stroke="black" stroke-width="2.0" fill="blue" /> <text x="284.400000" y="383.600000" fill="red" > 58 </text> -->
<!--/59 -->
     <rect width="20.000000" height="20.000000" x="364.200000" y="335.700000" stroke="black" stroke-width="1.5" fill="yellow" /> <text x="364.200000" y="335.700000" fill="red" > 59 </text> -->
<!--/60 -->
     <rect width="20.000000" height="20.000000" x="401.200000" y="372.700000" stroke="black" stroke-width="1.5" fill="blue" /> <text x="401.200000" y="372.700000" fill="red" > 60 </text> -->
<!--/61 -->
     <circle cx="535.500000" cy="48.300000" r="20.000000" stroke="black" stroke-width="2.0" fill="yellow" /> <text x="535.500000" y="48.300000" fill="red" > 61 </text> -->
<!--/62 -->
     <circle cx="572.500000" cy="48.300000" r="20.000000" stroke="black" stroke-width="2.0" fill="blue" /> <text x="572.500000" y="48.300000" fill="red" > 62 </text> -->
<!--/63 -->
     <rect width="20.000000" height="15.000000" x="134.875238" y="252.240796" stroke="black" stroke-width="1.5" fill="yellow" /> <text x="134.875238" y="252.240796" fill="red" > 63 </text> -->
<!--/64 -->
     <circle cx="138.100000" cy="289.100000" r="20.000000" stroke="black" stroke-width="2.0" fill="blue" /> <text x="138.100000" y="289.100000" fill="red" > 64 </text> -->
<!--/65 -->
     <rect width="20.000000" height="20.000000" x="315.300000" y="552.500000" stroke="black" stroke-width="1.5" fill="yellow" /> <text x="315.300000" y="552.500000" fill="red" > 65 </text> -->
<!--/66 -->
     <rect width="20.000000" height="20.000000" x="352.300000" y="589.500000" stroke="black" stroke-width="1.5" fill="blue" /> <text x="352.300000" y="589.500000" fill="red" > 66 </text> -->
<!--/67 -->
     <circle cx="320.600000" cy="267.700000" r="20.000000" stroke="black" stroke-width="2.0" fill="yellow" /> <text x="320.600000" y="267.700000" fill="red" > 67 </text> -->
<!--/68 -->
     <circle cx="357.600000" cy="267.700000" r="20.000000" stroke="black" stroke-width="2.0" fill="blue" /> <text x="357.600000" y="267.700000" fill="red" > 68 </text> -->
<!--/69 -->
     <rect width="20.000000" height="15.000000" x="165.251644" y="356.830811" stroke="black" stroke-width="1.5" fill="yellow" /> <text x="165.251644" y="356.830811" fill="red" > 69 </text> -->
<!--/70 -->
     <circle cx="145.100000" cy="325.800000" r="20.000000" stroke="black" stroke-width="2.0" fill="blue" /> <text x="145.100000" y="325.800000" fill="red" > 70 </text> -->
<!--/71 -->
     <rect width="20.000000" height="20.000000" x="1187.900000" y="600.500000" stroke="black" stroke-width="1.5" fill="yellow" /> <text x="1187.900000" y="600.500000" fill="red" > 71 </text> -->
<!--/72 -->
     <rect width="20.000000" height="20.000000" x="1224.900000" y="637.500000" stroke="black" stroke-width="1.5" fill="blue" /> <text x="1224.900000" y="637.500000" fill="red" > 72 </text> -->
<!--/73 -->
     <circle cx="525.000000" cy="708.700000" r="20.000000" stroke="black" stroke-width="2.0" fill="yellow" /> <text x="525.000000" y="708.700000" fill="red" > 73 </text> -->
<!--/74 -->
     <circle cx="562.000000" cy="708.700000" r="20.000000" stroke="black" stroke-width="2.0" fill="blue" /> <text x="562.000000" y="708.700000" fill="red" > 74 </text> -->
<!--/75 -->
     <rect width="20.000000" height="15.000000" x="979.890834" y="726.924208" stroke="black" stroke-width="1.5" fill="yellow" /> <text x="979.890834" y="726.924208" fill="red" > 75 </text> -->
<!--/76 -->
     <circle cx="984.400000" cy="690.200000" r="20.000000" stroke="black" stroke-width="2.0" fill="blue" /> <text x="984.400000" y="690.200000" fill="red" > 76 </text> -->
<!--/77 -->
     <rect width="20.000000" height="20.000000" x="521.900000" y="483.700000" stroke="black" stroke-width="1.5" fill="yellow" /> <text x="521.900000" y="483.700000" fill="red" > 77 </text> -->
<!--/78 -->
     <rect width="20.000000" height="20.000000" x="558.900000" y="520.700000" stroke="black" stroke-width="1.5" fill="blue" /> <text x="558.900000" y="520.700000" fill="red" > 78 </text> -->
     <rect width="105.500000" height="80.000000" x="278.500000" y="749.000000" fill="#044B94" fill-opacity="0.0" stroke-width="1.5" stroke="rgb(0,0,0)" /> 
     <rect width="80.000000" height="80.000000" x="237.700012" y="640.299988" fill="#044B94" fill-opacity="0.0" stroke-width="1.5" stroke="rgb(0,0,0)" /> 
     <rect width="75.500000" height="75.500000" x="371.399994" y="730.299988" fill="#044B94" fill-opacity="0.0" stroke-width="1.5" stroke="rgb(0,0,0)" /> 
     <rect width="105.500000" height="80.000000" x="225.200012" y="592.799988" fill="#044B94" fill-opacity="0.0" stroke-width="1.5" stroke="rgb(0,0,0)" /> 
     <rect width="80.000000" height="80.000000" x="890.099976" y="34.500000" fill="#044B94" fill-opacity="0.0" stroke-width="1.5" stroke="rgb(0,0,0)" /> 
     <rect width="75.500000" height="75.500000" x="109.699997" y="862.700012" fill="#044B94" fill-opacity="0.0" stroke-width="1.5" stroke="rgb(0,0,0)" /> 
     <rect width="105.500000" height="80.000000" x="228.600006" y="787.500000" fill="#044B94" fill-opacity="0.0" stroke-width="1.5" stroke="rgb(0,0,0)" /> 
     <rect width="94.259399" height="80.000000" x="908.200012" y="236.500000" fill="#044B94" fill-opacity="0.0" stroke-width="1.5" stroke="rgb(0,0,0)" /> 
     <rect width="75.500000" height="75.500000" x="805.000000" y="266.000000" fill="#044B94" fill-opacity="0.0" stroke-width="1.5" stroke="rgb(0,0,0)" /> 
     <rect width="961.600037" height="379.799988" x="91.300003" y="343.500000" fill="#044B94" fill-opacity="0.0" stroke-width="1.5" stroke="rgb(0,0,0)" stroke-dasharray="5,5" /> 
     <rect width="97.000000" height="60.000000" x="91.300003" y="343.500000" fill="#044B94" fill-opacity="0.0" stroke-width="1.5" stroke="rgb(0,0,0)" /> 
     <rect width="60.000000" height="71.715179" x="-7.299999" y="369.684814" fill="#044B94" fill-opacity="0.0" stroke-width="1.5" stroke="rgb(0,0,0)" /> 
     <rect width="77.000015" height="77.000000" x="217.699997" y="546.099976" fill="#044B94" fill-opacity="0.0" stroke-width="1.5" stroke="rgb(0,0,0)" stroke-dasharray="5,5" /> 
     <rect width="97.000000" height="60.000000" x="648.000000" y="177.899994" fill="#044B94" fill-opacity="0.0" stroke-width="1.5" stroke="rgb(0,0,0)" /> 
     <rect width="78.500000" height="87.042953" x="303.000000" y="64.199997" fill="#044B94" fill-opacity="0.0" stroke-width="1.5" stroke="rgb(0,0,0)" stroke-dasharray="5,5" /> 
     <rect width="77.000000" height="77.000000" x="623.500000" y="162.000000" fill="#044B94" fill-opacity="0.0" stroke-width="1.5" stroke="rgb(0,0,0)" stroke-dasharray="5,5" /> 
     <rect width="97.000000" height="60.000000" x="1154.400024" y="131.100006" fill="#044B94" fill-opacity="0.0" stroke-width="1.5" stroke="rgb(0,0,0)" /> 
     <rect width="68.323181" height="76.051697" x="430.899994" y="600.348328" fill="#044B94" fill-opacity="0.0" stroke-width="1.5" stroke="rgb(0,0,0)" stroke-dasharray="5,5" /> 
     <rect width="76.999939" height="77.000000" x="983.200012" y="48.799999" fill="#044B94" fill-opacity="0.0" stroke-width="1.5" stroke="rgb(0,0,0)" stroke-dasharray="5,5" /> 
     <rect width="97.000000" height="60.000000" x="1145.199951" y="797.700012" fill="#044B94" fill-opacity="0.0" stroke-width="1.5" stroke="rgb(0,0,0)" /> 
     <rect width="76.797302" height="59.999969" x="449.202698" y="477.600006" fill="#044B94" fill-opacity="0.0" stroke-width="1.5" stroke="rgb(0,0,0)" /> 
     <rect width="77.000000" height="77.000000" x="347.899994" y="746.000000" fill="#044B94" fill-opacity="0.0" stroke-width="1.5" stroke="rgb(0,0,0)" stroke-dasharray="5,5" /> 
     <rect width="97.000015" height="60.000000" x="179.199997" y="227.899994" fill="#044B94" fill-opacity="0.0" stroke-width="1.5" stroke="rgb(0,0,0)" /> 
     <rect width="60.000000" height="91.437897" x="571.700012" y="464.399994" fill="#044B94" fill-opacity="0.0" stroke-width="1.5" stroke="rgb(0,0,0)" stroke-dasharray="5,5" /> 
     <rect width="77.000000" height="77.000000" x="1077.099976" y="475.500000" fill="#044B94" fill-opacity="0.0" stroke-width="1.5" stroke="rgb(0,0,0)" stroke-dasharray="5,5" /> 
     <rect width="97.000000" height="60.000000" x="834.400024" y="630.900024" fill="#044B94" fill-opacity="0.0" stroke-width="1.5" stroke="rgb(0,0,0)" /> 
     <rect width="76.639954" height="60.000000" x="540.260071" y="111.500000" fill="#044B94" fill-opacity="0.0" stroke-width="1.5" stroke="rgb(0,0,0)" /> 
     <rect width="77.000000" height="77.000000" x="769.400024" y="299.500000" fill="#044B94" fill-opacity="0.0" stroke-width="1.5" stroke="rgb(0,0,0)" stroke-dasharray="5,5" /> 
     <rect width="97.000000" height="60.000000" x="921.200012" y="500.099976" fill="#044B94" fill-opacity="0.0" stroke-width="1.5" stroke="rgb(0,0,0)" /> 
     <rect width="76.994354" height="60.000000" x="237.405640" y="353.600006" fill="#044B94" fill-opacity="0.0" stroke-width="1.5" stroke="rgb(0,0,0)" /> 
     <rect width="77.000000" height="77.000000" x="354.200012" y="325.700012" fill="#044B94" fill-opacity="0.0" stroke-width="1.5" stroke="rgb(0,0,0)" stroke-dasharray="5,5" /> 
     <rect width="97.000000" height="60.000004" x="505.500000" y="18.299999" fill="#044B94" fill-opacity="0.0" stroke-width="1.5" stroke="rgb(0,0,0)" /> 
     <rect width="60.000000" height="76.859207" x="108.100006" y="242.240799" fill="#044B94" fill-opacity="0.0" stroke-width="1.5" stroke="rgb(0,0,0)" stroke-dasharray="5,5" /> 
     <rect width="77.000000" height="77.000000" x="305.299988" y="542.500000" fill="#044B94" fill-opacity="0.0" stroke-width="1.5" stroke="rgb(0,0,0)" stroke-dasharray="5,5" /> 
     <rect width="97.000000" height="60.000000" x="290.600006" y="237.700012" fill="#044B94" fill-opacity="0.0" stroke-width="1.5" stroke="rgb(0,0,0)" /> 
     <rect width="80.151642" height="86.030823" x="115.100006" y="295.799988" fill="#044B94" fill-opacity="0.0" stroke-width="1.5" stroke="rgb(0,0,0)" stroke-dasharray="5,5" /> 
     <rect width="77.000000" height="77.000000" x="1177.900024" y="590.500000" fill="#044B94" fill-opacity="0.0" stroke-width="1.5" stroke="rgb(0,0,0)" stroke-dasharray="5,5" /> 
     <rect width="97.000000" height="60.000000" x="495.000000" y="678.700012" fill="#044B94" fill-opacity="0.0" stroke-width="1.5" stroke="rgb(0,0,0)" /> 
     <rect width="60.000000" height="91.724182" x="954.400024" y="660.200012" fill="#044B94" fill-opacity="0.0" stroke-width="1.5" stroke="rgb(0,0,0)" stroke-dasharray="5,5" /> 
     <rect width="77.000000" height="77.000000" x="511.900024" y="473.700012" fill="#044B94" fill-opacity="0.0" stroke-width="1.5" stroke="rgb(0,0,0)" stroke-dasharray="5,5" /> 
</svg>