<svg viewBox="-1.199997 141.699997 740.600037 929.799988">
<!--/0 -->
     <circle cx="349.800000" cy="624.700000" r="40.000000" stroke="black" stroke-width="2.0" fill="yellow" /> <text x="349.800000" y="624.700000" fill="red" > 0 </text> -->
<!--/1 -->
     <circle cx="379.800000" cy="624.700000" r="40.000000" stroke="black" stroke-width="2.0" fill="blue" /> <text x="379.800000" y="624.700000" fill="red" > 1 </text> -->
<!--/2 -->
     <rect width="40.000000" height="30.000000" x="111.781333" y="310.016372" stroke="black" stroke-width="1.5" fill="yellow" /> <text x="111.781333" y="310.016372" fill="red" > 2 </text> -->
<!--/3 -->
     <circle cx="88.800000" cy="329.300000" r="40.000000" stroke="black" stroke-width="2.0" fill="blue" /> <text x="88.800000" y="329.300000" fill="red" > 3 </text> -->
<!--/4 -->
     <rect width="40.000000" height="40.000000" x="194.800000" y="191.700000" stroke="black" stroke-width="1.5" fill="yellow" /> <text x="194.800000" y="191.700000" fill="red" > 4 </text> -->
<!--/5 -->
     <rect width="40.000000" height="40.000000" x="224.800000" y="221.700000" stroke="black" stroke-width="1.5" fill="blue" /> <text x="224.800000" y="221.700000" fill="red" > 5 </text> -->
<!--/6 -->
     <circle cx="364.700000" cy="595.600000" r="40.000000" stroke="black" stroke-width="2.0" fill="yellow" /> <text x="364.700000" y="595.600000" fill="red" > 6 </text> -->
<!--/7 -->
     <circle cx="474.700000" cy="595.600000" r="40.000000" stroke="black" stroke-width="2.0" fill="blue" /> <text x="474.700000" y="595.600000" fill="red" > 7 </text> -->
<!--/8 -->
     <rect width="40.000000" height="30.000000" x="589.489706" y="681.253762" stroke="black" stroke-width="1.5" fill="yellow" /> <text x="589.489706" y="681.253762" fill="red" > 8 </text> -->
<!--/9 -->
     <circle cx="649.400000" cy="589.000000" r="40.000000" stroke="black" stroke-width="2.0" fill="blue" /> <text x="649.400000" y="589.000000" fill="red" > 9 </text> -->
<!--/10 -->
     <rect width="40.000000" height="40.000000" x="203.500000" y="871.500000" stroke="black" stroke-width="1.5" fill="yellow" /> <text x="203.500000" y="871.500000" fill="red" > 10 </text> -->
<!--/11 -->
     <rect width="40.000000" height="40.000000" x="313.500000" y="981.500000" stroke="black" stroke-width="1.5" fill="blue" /> <text x="313.500000" y="981.500000" fill="red" > 11 </text> -->
</svg>