<svg viewBox="50.000000 50.000000 220.000000 218.466660">
<!--/1 -->
     <circle cx="150.000000" cy="150.000000" r="50.000000" stroke="black" stroke-width="2.0" fill="blue" /> <text x="150.000000" y="150.000000" fill="red" > 1 </text> -->
<!--/2 -->
     <rect width="25.000000" height="25.000000" x="195.000000" y="150.000000" stroke="black" stroke-width="1.5" fill="yellow" /> <text x="195.000000" y="150.000000" fill="red" > 2 </text> -->
<!--/3 -->
     <rect width="25.000000" height="25.000000" x="186.861842" y="175.810940" stroke="black" stroke-width="1.5" fill="yellow" /> <text x="186.861842" y="175.810940" fill="red" > 3 </text> -->
<!--/4 -->
     <rect width="25.000000" height="25.000000" x="165.390906" y="192.286168" stroke="black" stroke-width="1.5" fill="yellow" /> <text x="165.390906" y="192.286168" fill="red" > 4 </text> -->
<!--/5 -->
     <rect width="25.000000" height="25.000000" x="138.353143" y="193.466662" stroke="black" stroke-width="1.5" fill="yellow" /> <text x="138.353143" y="193.466662" fill="red" > 5 </text> -->
<!--/6 -->
     <rect width="25.000000" height="25.000000" x="115.528000" y="178.925442" stroke="black" stroke-width="1.5" fill="yellow" /> <text x="115.528000" y="178.925442" fill="red" > 6 </text> -->
<!--/7 -->
     <rect width="25.000000" height="25.000000" x="105.171239" y="153.922008" stroke="black" stroke-width="1.5" fill="yellow" /> <text x="105.171239" y="153.922008" fill="red" > 7 </text> -->
<!--/8 -->
     <rect width="25.000000" height="25.000000" x="111.028857" y="127.500000" stroke="black" stroke-width="1.5" fill="yellow" /> <text x="111.028857" y="127.500000" fill="red" > 8 </text> -->
<!--/9 -->
     <rect width="25.000000" height="25.000000" x="130.982178" y="109.216150" stroke="black" stroke-width="1.5" fill="yellow" /> <text x="130.982178" y="109.216150" fill="red" > 9 </text> -->
<!--/10 -->
     <rect width="25.000000" height="25.000000" x="157.814168" y="105.683651" stroke="black" stroke-width="1.5" fill="yellow" /> <text x="157.814168" y="105.683651" fill="red" > 10 </text> -->
<!--/11 -->
     <rect width="25.000000" height="25.000000" x="181.819805" y="118.180195" stroke="black" stroke-width="1.5" fill="yellow" /> <text x="181.819805" y="118.180195" fill="red" > 11 </text> -->
<!--/12 -->
     <rect width="25.000000" height="25.000000" x="194.316349" y="142.185832" stroke="black" stroke-width="1.5" fill="yellow" /> <text x="194.316349" y="142.185832" fill="red" > 12 </text> -->
     <rect width="140.000000" height="120.000000" x="90.000000" y="90.000000" fill="#044B94" fill-opacity="0.0" stroke-width="1.5" stroke="rgb(0,0,0)" /> 
     <rect width="131.861847" height="120.810944" x="90.000000" y="90.000000" fill="#044B94" fill-opacity="0.0" stroke-width="1.5" stroke="rgb(0,0,0)" /> 
     <rect width="120.000000" height="137.286163" x="90.000000" y="90.000000" fill="#044B94" fill-opacity="0.0" stroke-width="1.5" stroke="rgb(0,0,0)" /> 
     <rect width="120.000000" height="138.466660" x="90.000000" y="90.000000" fill="#044B94" fill-opacity="0.0" stroke-width="1.5" stroke="rgb(0,0,0)" /> 
     <rect width="120.000000" height="123.925446" x="90.000000" y="90.000000" fill="#044B94" fill-opacity="0.0" stroke-width="1.5" stroke="rgb(0,0,0)" /> 
     <rect width="120.000000" height="120.000000" x="90.000000" y="90.000000" fill="#044B94" fill-opacity="0.0" stroke-width="1.5" stroke="rgb(0,0,0)" /> 
     <rect width="120.000000" height="120.000000" x="90.000000" y="90.000000" fill="#044B94" fill-opacity="0.0" stroke-width="1.5" stroke="rgb(0,0,0)" /> 
     <rect width="120.000000" height="120.000000" x="90.000000" y="90.000000" fill="#044B94" fill-opacity="0.0" stroke-width="1.5" stroke="rgb(0,0,0)" /> 
     <rect width="120.000000" height="120.000000" x="90.000000" y="90.000000" fill="#044B94" fill-opacity="0.0" stroke-width="1.5" stroke="rgb(0,0,0)" /> 
     <rect width="126.819809" height="120.000000" x="90.000000" y="90.000000" fill="#044B94" fill-opacity="0.0" stroke-width="1.5" stroke="rgb(0,0,0)" /> 
     <rect width="139.316345" height="120.000000" x="90.000000" y="90.000000" fill="#044B94" fill-opacity="0.0" stroke-width="1.5" stroke="rgb(0,0,0)" /> 
</svg>